<svg width="1289" height="1040" viewBox="0 0 1289 1040" fill="none" xmlns="http://www.w3.org/2000/svg">
<rect width="1512" height="1039.23" transform="translate(-81)" fill="white"/>
<path d="M0 363.333L42.9667 383.582C85.9333 403.073 171.867 444.705 257.8 433.918C343.733 423.889 429.667 363.333 515.6 282.53C601.533 202.483 687.467 100.295 773.4 60.5556C859.333 20.816 945.267 39.7396 1031.2 40.3073C1117.13 39.7396 1203.07 20.816 1246.03 10.0295L1289 0V545H1246.03C1203.07 545 1117.13 545 1031.2 545C945.267 545 859.333 545 773.4 545C687.467 545 601.533 545 515.6 545C429.667 545 343.733 545 257.8 545C171.867 545 85.9333 545 42.9667 545H0V363.333Z" fill="#ECD4FF"/>
<rect x="-28" y="524" width="1375" height="129" fill="#ECD4FF"/>
<path d="M-81 741L-30.6 733.713C19.8 725.875 120.6 712.125 221.4 719C322.2 725.875 423 756.125 523.8 807C624.6 857.875 725.4 932.125 826.2 983C927 1033.88 1027.8 1064.12 1128.6 1012.29C1229.4 961 1330.2 829 1380.6 763L1431 697V653H1380.6C1330.2 653 1229.4 653 1128.6 653C1027.8 653 927 653 826.2 653C725.4 653 624.6 653 523.8 653C423 653 322.2 653 221.4 653C120.6 653 19.8 653 -30.6 653H-81V741Z" fill="#ECD4FF"/>
</svg>
